# xmcd CD database file generated by LOLA_Freedb v0.9beta0
# 
# Track frame offsets:
#      150
#      11294
#      22749
#      34424
#      49055
#      62842
#      73814
#      85141
#      94917
#      109764
#      122271
#      134242
# 
# Disc length: 1930 seconds
# 
# Revision: 0 
# Processed by: cddbd v1.5.2PL0 Copyright (c) Steve Scherf et al.
# Submitted via: LOLA_Freedb v0.9beta0
# 
DISCID=9e07880c
DTITLE=Daniel T. Coates - Christmas in the Country
DYEAR=2006
DGENRE=
TTITLE0=Daniel T. Coates - Christmas in the Country
TTITLE1=Daniel T. Coates - Blue Christmas
TTITLE2=Daniel T. Coates - I Saw Mommy Kissing Santa Claus
TTITLE3=Daniel T. Coates - Without You Mary Christmas
TTITLE4=Daniel T. Coates - It´s Christmas Time
TTITLE5=Daniel T. Coates - Jolly Old St. Nicholas
TTITLE6=Daniel T. Coates - Have Yourself A Merry Little Christmas
TTITLE7=Daniel T. Coates - Rudolf The Red-Nosed Reindeer
TTITLE8=Daniel T. Coates - Back in Witchita
TTITLE9=Daniel T. Coates - Santa Claus Is Coming To Town
TTITLE10=Daniel T. Coates - Goodbye Letter
TTITLE11=Daniel T. Coates - Away In A Manger
EXTD=
EXTT0=
EXTT1=
EXTT2=
EXTT3=
EXTT4=
EXTT5=
EXTT6=
EXTT7=
EXTT8=
EXTT9=
EXTT10=
EXTT11=
PLAYORDER=
